<?xml version="1.0" standalone="no"?>
<!DOCTYPE svg PUBLIC "-//W3C//DTD SVG 20010904//EN"
 "http://www.w3.org/TR/2001/REC-SVG-20010904/DTD/svg10.dtd">
<svg version="1.0" xmlns="http://www.w3.org/2000/svg"
 width="512.000000pt" height="512.000000pt" viewBox="0 0 512.000000 512.000000"
 preserveAspectRatio="xMidYMid meet">
<metadata>
Created by potrace 1.14, written by Peter Selinger 2001-2017
</metadata>
<g transform="translate(0.000000,512.000000) scale(0.100000,-0.100000)"
fill="#000000" stroke="none">
<path d="M4930 5077 c-3 -2 -25 -7 -50 -11 -25 -3 -61 -8 -80 -12 -74 -12
-436 -74 -455 -78 -11 -2 -40 -7 -65 -11 -25 -4 -56 -9 -70 -12 -60 -11 -318
-54 -350 -59 -19 -3 -42 -7 -50 -9 -8 -3 -33 -7 -55 -10 -22 -3 -65 -11 -95
-16 -30 -6 -68 -13 -85 -15 -16 -3 -79 -14 -140 -24 -60 -11 -126 -22 -145
-25 -207 -34 -235 -46 -269 -114 -23 -44 -21 -109 5 -149 9 -15 360 -370 779
-789 669 -669 766 -763 803 -772 65 -18 134 6 171 58 19 27 44 133 66 281 4
25 20 119 36 210 16 91 31 179 34 195 3 17 7 40 9 51 2 12 7 39 11 60 7 49 13
84 25 154 5 30 12 69 14 85 9 53 36 209 41 235 3 14 7 36 9 50 3 14 14 81 26
150 12 69 26 152 31 185 6 33 12 74 15 90 33 184 26 223 -48 278 -24 18 -107
35 -118 24z"/>
<path d="M2752 3699 c-210 -210 -382 -385 -382 -390 0 -5 7 -9 15 -9 8 0 29
-7 47 -15 28 -12 395 -153 538 -205 25 -9 52 -20 60 -23 8 -4 128 -49 265
-101 138 -52 304 -115 370 -140 65 -25 122 -46 126 -46 6 0 289 279 316 312
10 11 -80 105 -481 506 l-493 493 -381 -382z"/>
<path d="M1921 2869 c-128 -127 -231 -232 -229 -234 2 -1 46 -18 98 -38 52
-20 109 -42 125 -48 17 -7 50 -20 75 -29 37 -14 369 -140 1025 -391 76 -29
102 -35 113 -27 37 31 452 451 452 458 0 4 -8 10 -17 13 -10 3 -106 38 -213
79 -777 298 -1175 448 -1185 448 -7 0 -117 -104 -244 -231z"/>
<path d="M1396 2345 c-93 -97 -117 -146 -111 -228 2 -30 8 -64 14 -75 8 -15 7
-22 -2 -30 -54 -43 -203 -83 -320 -86 -103 -3 -157 7 -334 64 -174 56 -248 68
-410 70 -126 2 -159 -6 -200 -47 -30 -30 -34 -40 -30 -72 12 -99 50 -122 193
-118 124 4 229 -12 375 -59 204 -65 258 -74 414 -70 77 2 147 6 155 8 8 3 29
8 45 13 76 19 133 41 210 80 l82 42 44 -44 43 -44 -726 -727 c-399 -400 -734
-742 -743 -760 -17 -35 -15 -104 4 -140 18 -33 70 -71 107 -78 88 -16 61 -40
852 749 l732 732 114 -114 c137 -138 174 -162 255 -166 104 -5 122 8 454 340
163 164 296 299 295 301 -2 1 -100 39 -218 84 -118 45 -224 85 -235 90 -11 5
-117 46 -235 90 -118 45 -249 94 -290 110 -239 93 -443 170 -449 169 -3 0 -42
-38 -85 -84z"/>
</g>
</svg>
